# xmcd CD database file
#
# Track frame offsets:
#	150
#	20286
#	38322
#	58613
#	76649
#	95478
#	110740
#	127836
#	144122
#	159409
#	175641
#	191484
#	212343
#	231486
#
# Disc length: 3419 seconds
#
# Revision: 0
# Processed by: cddbd v1.5.1PL2 Copyright (c) Steve Scherf et al.
# Submitted via: CDex 1.51
#
DISCID=9f0d590e
DTITLE=Keren Ann - KCRW Morning Becomes Eclectic, June 15, 2005. 
DYEAR=2005
DGENRE=Blues
TTITLE0=Keren Ann - Chelsea Burns
TTITLE1=Keren Ann - End Of May
TTITLE2=Keren Ann - Sailor And Widow
TTITLE3=Keren Ann - Que N'ai-je
TTITLE4=Keren Ann - Not Going Anywhere
TTITLE5=Keren Ann - Are You Lonesome Tonight
TTITLE6=Keren Ann - Greatest You Can Find
TTITLE7=Keren Ann - Not Going Anywhere
TTITLE8=Keren Ann - Road Bin
TTITLE9=Keren Ann - Sailor and Widow
TTITLE10=Keren Ann - Que n' ai-je
TTITLE11=Keren Ann - Greatest You Can Find
TTITLE12=Keren Ann - Chelsea Burns
TTITLE13=Keren Ann - La Forme et le fond
EXTD=YEAR: 2005
EXTT0=
EXTT1=
EXTT2=
EXTT3=
EXTT4=
EXTT5=
EXTT6=
EXTT7=
EXTT8=
EXTT9=
EXTT10=
EXTT11=
EXTT12=
EXTT13=
PLAYORDER=
